<svg width="64" height="53" viewBox="0 0 64 53" fill="none" xmlns="http://www.w3.org/2000/svg">
<path d="M64 6.29841C61.5947 7.35136 59.051 8.04742 56.448 8.36494C59.1942 6.70952 61.2521 4.10524 62.24 1.03521C59.6594 2.58531 56.8344 3.67745 53.888 4.26417C51.9185 2.10907 49.2959 0.674519 46.4314 0.185509C43.5669 -0.3035 40.6225 0.180688 38.0601 1.56214C35.4977 2.94359 33.4622 5.14416 32.2728 7.81872C31.0834 10.4933 30.8073 13.4906 31.488 16.3405C26.2702 16.0742 21.1662 14.7032 16.5077 12.3167C11.8492 9.93025 7.74031 6.58157 4.448 2.48824C3.29324 4.52303 2.68646 6.82739 2.688 9.17218C2.68391 11.3497 3.21349 13.4945 4.22962 15.4156C5.24574 17.3366 6.71686 18.9744 8.512 20.1829C6.42553 20.1257 4.38363 19.5607 2.56 18.5362V18.6976C2.57564 21.7486 3.63518 24.7006 5.55941 27.0541C7.48363 29.4076 10.1544 31.0182 13.12 31.6135C11.9784 31.964 10.7932 32.1488 9.6 32.1624C8.77405 32.1526 7.95015 32.0771 7.136 31.9364C7.98051 34.5609 9.61479 36.8545 11.8114 38.4981C14.0081 40.1417 16.6578 41.0535 19.392 41.1066C14.775 44.7723 9.07483 46.773 3.2 46.7896C2.13035 46.7931 1.06155 46.7284 0 46.5958C5.99817 50.5037 12.9882 52.5782 20.128 52.5694C25.055 52.621 29.9428 51.6815 34.506 49.8057C39.0691 47.9299 43.2161 45.1553 46.7047 41.6442C50.1932 38.1331 52.9535 33.9557 54.8242 29.3561C56.6949 24.7565 57.6385 19.8269 57.6 14.8552C57.6 14.3062 57.6 13.725 57.6 13.1438C60.111 11.2543 62.2767 8.93784 64 6.29841V6.29841Z" fill="#9F9D9D"/>
</svg>
