<svg width="33" height="33" viewBox="0 0 33 33" fill="none" xmlns="http://www.w3.org/2000/svg">
<path fill-rule="evenodd" clip-rule="evenodd" d="M8.18335 11.1623C8.23831 11.1769 8.29242 11.1982 8.34455 11.2267L16.5 15.6813L24.6555 11.2267C24.7076 11.1982 24.7617 11.1769 24.8167 11.1623C24.4997 10.4761 23.8055 10 23 10H10C9.19454 10 8.50028 10.4761 8.18335 11.1623ZM25 12.6764L16.8445 17.1311C16.6298 17.2484 16.3702 17.2484 16.1555 17.1311L8 12.6764V21C8 22.1046 8.89543 23 10 23H23C24.1046 23 25 22.1046 25 21V12.6764Z" fill="white"/>
</svg>
