<svg width="35" height="34" viewBox="0 0 35 34" fill="none" xmlns="http://www.w3.org/2000/svg">
<g clip-path="url(#clip0_276_453)">
<path d="M16.3454 16.0184C16.7828 16.0184 17.137 16.3465 17.129 16.7474C17.129 17.1484 16.7835 17.4764 16.3454 17.4764C15.9153 17.4764 15.561 17.1484 15.561 16.7474C15.561 16.3465 15.9072 16.0184 16.3454 16.0184ZM19.1505 16.0184C19.5886 16.0184 19.9349 16.3465 19.9349 16.7474C19.9349 17.1484 19.5886 17.4764 19.1505 17.4764C18.7204 17.4764 18.3669 17.1484 18.3669 16.7474C18.3669 16.3465 18.7124 16.0184 19.1505 16.0184ZM22.7714 9.45752C23.6192 9.45752 24.3089 10.1617 24.3089 11.0343V24.7663L22.6971 23.312L21.7895 22.4547L20.8294 21.5435L21.2274 22.9599H12.7245C11.8766 22.9599 11.187 22.2557 11.187 21.3831V11.0343C11.187 10.1617 11.8766 9.45752 12.7245 9.45752H22.7707H22.7714ZM19.8773 19.4542C21.5343 19.401 22.1722 18.2907 22.1722 18.2907C22.1722 15.826 21.0918 13.8278 21.0918 13.8278C20.0129 13.0019 18.985 13.0245 18.985 13.0245L18.8801 13.1469C20.1551 13.545 20.747 14.1194 20.747 14.1194C20.0509 13.7272 19.2837 13.4774 18.49 13.3846C17.9866 13.3277 17.4782 13.3326 16.9759 13.3992C16.9307 13.3992 16.8928 13.4072 16.8484 13.4145C16.5859 13.4378 15.9481 13.537 15.1462 13.8971C14.8691 14.0268 14.7037 14.1194 14.7037 14.1194C14.7037 14.1194 15.3262 13.5144 16.6756 13.1163L16.6005 13.0245C16.6005 13.0245 15.5734 13.0019 14.4937 13.8286C14.4937 13.8286 13.4141 15.826 13.4141 18.2907C13.4141 18.2907 14.0439 19.4002 15.7009 19.4542C15.7009 19.4542 15.9779 19.1101 16.2039 18.8192C15.2511 18.5276 14.8917 17.9153 14.8917 17.9153C14.8917 17.9153 14.9661 17.9692 15.101 18.0458C15.1083 18.0531 15.1155 18.0611 15.1309 18.0684C15.1535 18.0844 15.1761 18.0917 15.1987 18.107C15.386 18.2142 15.5734 18.298 15.7454 18.3673C16.053 18.4897 16.4204 18.6122 16.8484 18.6968C17.4894 18.8224 18.1485 18.8249 18.7904 18.704C19.1643 18.6373 19.5291 18.527 19.8773 18.3753C20.1398 18.2754 20.4321 18.1296 20.7397 17.9233C20.7397 17.9233 20.365 18.551 19.3823 18.8345C19.6076 19.1254 19.878 19.4542 19.878 19.4542H19.8773Z" fill="white"/>
</g>
<defs>
<clipPath id="clip0_276_453">
<rect width="16.0378" height="16.0378" fill="white" transform="translate(9.40332 8.74805)"/>
</clipPath>
</defs>
</svg>
