<svg width="33" height="33" viewBox="0 0 33 33" fill="none" xmlns="http://www.w3.org/2000/svg">
<path d="M9 9.625C9 9.27982 9.27982 9 9.625 9H23.375C23.7202 9 24 9.27982 24 9.625V23.375C24 23.7202 23.7202 24 23.375 24H9.625C9.27982 24 9 23.7202 9 23.375V9.625Z" fill="white"/>
<path d="M15.2096 24.0001C15.037 24.0001 14.8971 23.8602 14.8971 23.6876V17.5841C14.8971 17.4115 14.7572 17.2716 14.5846 17.2716H13.9639C13.7913 17.2716 13.6514 17.1317 13.6514 16.9591V15.7274C13.6514 15.5548 13.7913 15.4149 13.9639 15.4149H14.5846C14.7572 15.4149 14.8971 15.275 14.8971 15.1024V14.7325C14.8971 13.7539 15.1854 12.9949 15.762 12.4553C16.3385 11.9158 17.1479 11.646 18.1899 11.646C18.5033 11.646 18.8417 11.6836 19.2052 11.7588C19.3458 11.7879 19.444 11.9134 19.4446 12.057L19.4499 13.3625C19.4507 13.5712 19.2477 13.7295 19.0394 13.7163C18.963 13.7114 18.8808 13.709 18.793 13.709C17.9836 13.709 17.579 14.0581 17.579 14.7563V15.1024C17.579 15.275 17.7189 15.4149 17.8915 15.4149H18.9407C19.1133 15.4149 19.2532 15.5548 19.2532 15.7274V16.9591C19.2532 17.1317 19.1133 17.2716 18.9407 17.2716H17.8915C17.7189 17.2716 17.579 17.4115 17.579 17.5841V23.6876C17.579 23.8602 17.4391 24.0001 17.2665 24.0001H15.2096Z" fill="#4F5150"/>
</svg>
