<svg width="65" height="64" viewBox="0 0 65 64" fill="none" xmlns="http://www.w3.org/2000/svg">
<g clip-path="url(#clip0_209_80)">
<path d="M32.5781 64C50.2512 64 64.5781 49.6731 64.5781 32C64.5781 14.3269 50.2512 0 32.5781 0C14.905 0 0.578125 14.3269 0.578125 32C0.578125 49.6731 14.905 64 32.5781 64Z" fill="#F0F0F0"/>
<path d="M7.19329 12.5146C4.67966 15.785 2.78429 19.5544 1.68066 23.6493H18.3279L7.19329 12.5146Z" fill="#0052B4"/>
<path d="M63.4767 23.6497C62.3731 19.5549 60.4776 15.7855 57.9641 12.5152L46.8297 23.6497H63.4767Z" fill="#0052B4"/>
<path d="M1.68066 40.3473C2.78441 44.442 4.67979 48.2114 7.19329 51.4816L18.3275 40.3473H1.68066Z" fill="#0052B4"/>
<path d="M52.0597 6.61273C48.7893 4.09911 45.02 2.20373 40.9252 1.09998V17.7471L52.0597 6.61273Z" fill="#0052B4"/>
<path d="M13.0953 57.3805C16.3657 59.8941 20.1351 61.7895 24.2298 62.8933V46.2463L13.0953 57.3805Z" fill="#0052B4"/>
<path d="M24.2297 1.09998C20.135 2.20373 16.3656 4.0991 13.0953 6.6126L24.2297 17.747V1.09998Z" fill="#0052B4"/>
<path d="M40.9252 62.8933C45.0199 61.7895 48.7893 59.8941 52.0595 57.3806L40.9252 46.2463V62.8933Z" fill="#0052B4"/>
<path d="M46.8297 40.3473L57.9641 51.4817C60.4776 48.2115 62.3731 44.442 63.4767 40.3473H46.8297Z" fill="#0052B4"/>
<path d="M64.3073 27.8261H36.7523H36.7521V0.270875C35.3857 0.093 33.9928 0 32.5781 0C31.1632 0 29.7705 0.093 28.4042 0.270875V27.8259V27.826H0.849C0.671125 29.1924 0.578125 30.5854 0.578125 32C0.578125 33.4149 0.671125 34.8076 0.849 36.1739H28.404H28.4041V63.7291C29.7705 63.907 31.1632 64 32.5781 64C33.9928 64 35.3857 63.9071 36.752 63.7291V36.1741V36.174H64.3073C64.4851 34.8076 64.5781 33.4149 64.5781 32C64.5781 30.5854 64.4851 29.1924 64.3073 27.8261Z" fill="#D80027"/>
<path d="M40.9258 40.35L55.2053 54.6295C55.862 53.973 56.4885 53.2866 57.0863 52.5751L44.861 40.3499H40.9258V40.35Z" fill="#D80027"/>
<path d="M24.2302 40.3499H24.2299L9.95056 54.6293C10.6071 55.286 11.2934 55.9125 12.0049 56.5103L24.2302 44.2848V40.3499Z" fill="#D80027"/>
<path d="M24.2298 23.651V23.6507L9.95034 9.37112C9.29359 10.0276 8.66709 10.714 8.06934 11.4255L20.2947 23.6509H24.2298V23.651Z" fill="#D80027"/>
<path d="M40.9258 23.6538L55.2054 9.37409C54.5489 8.71734 53.8625 8.09084 53.151 7.49321L40.9258 19.7186V23.6538V23.6538Z" fill="#D80027"/>
</g>
<defs>
<clipPath id="clip0_209_80">
<rect width="64" height="64" fill="white" transform="translate(0.578125)"/>
</clipPath>
</defs>
</svg>
