<svg width="64" height="65" viewBox="0 0 64 65" fill="none" xmlns="http://www.w3.org/2000/svg">
<path d="M64 32.12C64 23.6331 60.6286 15.4937 54.6274 9.49259C48.6262 3.49142 40.4869 0.120003 32 0.120003C23.5131 0.120002 15.3737 3.49142 9.37258 9.49258C3.37142 15.4937 1.28149e-06 23.6331 0 32.12L32 32.12H64Z" fill="#F7FCFF"/>
<path d="M-0.000111643 32.12C-0.000112385 40.6069 3.37131 48.7462 9.37247 54.7474C15.3736 60.7486 23.513 64.12 31.9999 64.12C40.4868 64.12 48.6261 60.7486 54.6273 54.7474C60.6285 48.7463 63.9999 40.6069 63.9999 32.12L31.9999 32.12L-0.000111643 32.12Z" fill="#C51918"/>
</svg>
