<svg width="792" height="183" viewBox="0 0 792 183" fill="none" xmlns="http://www.w3.org/2000/svg">
<path d="M44.125 61L6 99.125L44.125 137.25" stroke="white" stroke-width="11.4375" stroke-linecap="round" stroke-linejoin="round"/>
<path d="M135.625 61L173.75 99.125L135.625 137.25" stroke="white" stroke-width="11.4375" stroke-linecap="round" stroke-linejoin="round"/>
<path d="M107.724 43.1136L79.1307 149.344H69.7727L98.3665 43.1136H107.724Z" fill="url(#paint0_linear_206_93)"/>
<path d="M263.664 137L236.946 51.6H253.294L268.666 102.23C269.317 104.263 269.886 106.541 270.374 109.062C270.862 111.583 271.309 113.983 271.716 116.26C272.123 118.537 272.407 120.327 272.57 121.628H269.276C270.333 117.724 271.147 114.593 271.716 112.234C272.285 109.875 272.773 107.923 273.18 106.378C273.587 104.833 274.034 103.409 274.522 102.108L289.04 65.142H302.46L316.612 102.108C317.507 104.304 318.239 106.459 318.808 108.574C319.459 110.607 319.987 112.6 320.394 114.552C320.882 116.504 321.329 118.537 321.736 120.652L318.808 121.384C319.133 119.432 319.377 117.846 319.54 116.626C319.703 115.325 319.865 114.227 320.028 113.332C320.191 112.356 320.353 111.421 320.516 110.526C320.679 109.55 320.923 108.411 321.248 107.11C321.573 105.727 322.061 103.979 322.712 101.864L337.718 51.6H354.188L327.47 137H316.002L294.164 85.028L295.75 85.394L275.01 137H263.664ZM392.213 138.22C385.462 138.22 379.484 136.837 374.279 134.072C369.155 131.225 365.129 127.362 362.201 122.482C359.354 117.521 357.931 111.827 357.931 105.402C357.931 100.359 358.744 95.764 360.371 91.616C361.998 87.468 364.275 83.8893 367.203 80.88C370.131 77.7893 373.588 75.4307 377.573 73.804C381.64 72.096 386.032 71.242 390.749 71.242C395.06 71.242 399.004 72.0553 402.583 73.682C406.243 75.3087 409.415 77.5453 412.099 80.392C414.783 83.1573 416.816 86.492 418.199 90.396C419.663 94.2187 420.354 98.4073 420.273 102.962L420.151 108.33H368.179L365.251 97.96H407.585L405.755 100.034V97.228C405.511 94.788 404.698 92.6327 403.315 90.762C401.932 88.81 400.143 87.3053 397.947 86.248C395.832 85.1093 393.474 84.54 390.871 84.54C386.886 84.54 383.51 85.3127 380.745 86.858C377.98 88.322 375.865 90.518 374.401 93.446C373.018 96.374 372.327 99.9933 372.327 104.304C372.327 108.452 373.181 112.071 374.889 115.162C376.678 118.253 379.2 120.652 382.453 122.36C385.706 124.068 389.488 124.922 393.799 124.922C396.808 124.922 399.574 124.434 402.095 123.458C404.698 122.482 407.463 120.733 410.391 118.212L417.711 128.46C415.515 130.493 412.994 132.242 410.147 133.706C407.382 135.089 404.454 136.187 401.363 137C398.272 137.813 395.222 138.22 392.213 138.22ZM468.943 138.22C466.097 138.22 463.331 137.813 460.647 137C457.963 136.105 455.483 134.926 453.205 133.462C451.009 131.998 449.179 130.371 447.715 128.582C446.251 126.711 445.275 124.841 444.787 122.97L448.325 121.384L447.959 136.634H433.563V46.72H448.447V87.468L445.885 86.37C446.292 84.418 447.187 82.588 448.569 80.88C449.952 79.0907 451.701 77.5047 453.815 76.122C455.93 74.658 458.248 73.5193 460.769 72.706C463.291 71.8113 465.893 71.364 468.577 71.364C474.271 71.364 479.313 72.828 483.705 75.756C488.179 78.6027 491.676 82.5473 494.197 87.59C496.8 92.5513 498.101 98.2853 498.101 104.792C498.101 111.217 496.841 116.951 494.319 121.994C491.798 127.037 488.301 131.022 483.827 133.95C479.435 136.797 474.474 138.22 468.943 138.22ZM465.893 125.044C469.309 125.044 472.359 124.19 475.043 122.482C477.727 120.693 479.842 118.293 481.387 115.284C482.933 112.193 483.705 108.696 483.705 104.792C483.705 100.807 482.933 97.3093 481.387 94.3C479.923 91.2093 477.849 88.81 475.165 87.102C472.481 85.394 469.391 84.54 465.893 84.54C462.315 84.54 459.183 85.394 456.499 87.102C453.815 88.81 451.701 91.2093 450.155 94.3C448.61 97.3093 447.837 100.807 447.837 104.792C447.837 108.696 448.61 112.193 450.155 115.284C451.701 118.293 453.815 120.693 456.499 122.482C459.183 124.19 462.315 125.044 465.893 125.044Z" fill="white"/>
<path d="M509.041 110.038V93.934H548.813V110.038H509.041ZM566.102 137V51.6H601.238C607.419 51.6 613.072 52.6573 618.196 54.772C623.32 56.8053 627.712 59.7333 631.372 63.556C635.032 67.2973 637.838 71.8113 639.79 77.098C641.742 82.3033 642.718 88.0373 642.718 94.3C642.718 100.644 641.742 106.419 639.79 111.624C637.838 116.829 635.032 121.343 631.372 125.166C627.712 128.907 623.32 131.835 618.196 133.95C613.153 135.983 607.501 137 601.238 137H566.102ZM584.402 123.58L582.45 120.53H600.628C604.288 120.53 607.541 119.92 610.388 118.7C613.316 117.48 615.797 115.731 617.83 113.454C619.945 111.095 621.531 108.33 622.588 105.158C623.645 101.905 624.174 98.2853 624.174 94.3C624.174 90.3147 623.645 86.736 622.588 83.564C621.531 80.3107 619.945 77.5453 617.83 75.268C615.797 72.9093 613.316 71.12 610.388 69.9C607.541 68.68 604.288 68.07 600.628 68.07H582.084L584.402 65.264V123.58ZM687.452 138.22C680.457 138.22 674.317 136.797 669.03 133.95C663.825 131.103 659.758 127.199 656.83 122.238C653.983 117.277 652.56 111.624 652.56 105.28C652.56 100.237 653.373 95.642 655 91.494C656.627 87.2647 658.904 83.6453 661.832 80.636C664.76 77.6267 668.217 75.3087 672.202 73.682C676.269 71.974 680.701 71.12 685.5 71.12C689.892 71.12 693.918 71.9333 697.578 73.56C701.319 75.1053 704.532 77.342 707.216 80.27C709.981 83.1167 712.096 86.492 713.56 90.396C715.024 94.3 715.715 98.57 715.634 103.206L715.512 108.574H663.662L660.856 97.838H701.238L699.164 100.034V97.472C699.001 95.1947 698.269 93.202 696.968 91.494C695.748 89.786 694.162 88.444 692.21 87.468C690.258 86.4107 688.103 85.882 685.744 85.882C682.084 85.882 678.993 86.614 676.472 88.078C674.032 89.4607 672.161 91.494 670.86 94.178C669.64 96.7807 669.03 100.034 669.03 103.938C669.03 107.761 669.843 111.136 671.47 114.064C673.097 116.911 675.415 119.107 678.424 120.652C681.515 122.197 685.134 122.97 689.282 122.97C692.129 122.97 694.731 122.523 697.09 121.628C699.449 120.733 702.011 119.188 704.776 116.992L712.95 128.582C710.673 130.615 708.111 132.364 705.264 133.828C702.417 135.292 699.489 136.39 696.48 137.122C693.471 137.854 690.461 138.22 687.452 138.22ZM747.616 137L720.532 72.462H739.442L756.644 120.408L752.74 121.14L770.796 72.462H789.34L760.914 137H747.616Z" fill="url(#paint1_linear_206_93)"/>
<defs>
<linearGradient id="paint0_linear_206_93" x1="64.1304" y1="91.5" x2="127.5" y2="91.5" gradientUnits="userSpaceOnUse">
<stop stop-color="#40B853"/>
<stop offset="1" stop-color="#24FF96"/>
</linearGradient>
<linearGradient id="paint1_linear_206_93" x1="198.424" y1="91.5" x2="1000.62" y2="91.5" gradientUnits="userSpaceOnUse">
<stop stop-color="#40B853"/>
<stop offset="1" stop-color="#24FF96"/>
</linearGradient>
</defs>
</svg>
